<svg height="488pt" viewBox="0 -103 488.24573 488" width="488pt" xmlns="http://www.w3.org/2000/svg" xmlns:xlink="http://www.w3.org/1999/xlink"><linearGradient id="a"><stop offset="0" stop-color="#00efd1"/><stop offset="1" stop-color="#00acea"/></linearGradient><linearGradient id="b" gradientUnits="userSpaceOnUse" x1="222.847025" x2="222.847025" xlink:href="#a" y1="-63.360485" y2="355.232515"/><linearGradient id="c" gradientUnits="userSpaceOnUse" x1="244.123025" x2="244.123025" xlink:href="#a" y1="-63.360485" y2="355.232515"/><path d="m222.847656 88.535156c-16.597656-.003906-30.054687 13.453125-30.054687 30.050782 0 16.597656 13.453125 30.054687 30.050781 30.054687 16.601562 0 30.054688-13.457031 30.054688-30.054687-.019532-16.589844-13.460938-30.035157-30.050782-30.050782zm0 44.097656c-7.761718 0-14.054687-6.289062-14.054687-14.050781s6.292969-14.054687 14.054687-14.054687c7.761719 0 14.050782 6.292968 14.050782 14.054687-.007813 7.757813-6.292969 14.046875-14.050782 14.054688zm0 0" fill="url(#b)"/><path d="m453.828125 140.925781c.027344-45.109375 11.527344-89.472656 33.410156-128.917969 1.550781-2.792968 1.292969-6.238281-.65625-8.769531-1.953125-2.53125-5.222656-3.65625-8.316406-2.867187l-44.121094 11.285156c-127.449219 32.507812-261.09375 31.90625-388.242187-1.753906l-35.851563-9.511719c-3.101562-.824219-6.390625.285156-8.363281 2.816406s-2.238281 5.996094-.679688 8.800781c21.886719 39.445313 33.386719 83.808594 33.414063 128.917969-.027344 45.109375-11.527344 89.472657-33.414063 128.917969-1.59375 2.867188-1.273437 6.414062.800782 8.949219 2.078125 2.539062 5.492187 3.550781 8.617187 2.558593 149.351563-47.554687 309.65625-48.398437 459.5-2.421874l7.96875 2.445312c3.121094.957031 6.511719-.078125 8.5625-2.613281 2.054688-2.535157 2.363281-6.066407.777344-8.917969-21.882813-39.445312-33.378906-83.808594-33.40625-128.917969zm-357.941406 102.214844 75.296875-75.140625 44.253906 27.894531-39.785156 36.144531c-26.761719 2.332032-53.386719 6.039063-79.765625 11.101563zm148.179687-14.085937c-1.382812 0-2.769531.003906-4.15625.011718-12.84375.066406-25.664062.449219-38.460937 1.148438l84.042969-76.355469 91.253906 86.472656c-43.828125-7.507812-88.214844-11.28125-132.679688-11.277343zm161.820313 16.839843-114.777344-108.753906c-3.039063-2.882813-7.789063-2.933594-10.886719-.113281l-52.5 47.699218-53.410156-33.664062c-3.15625-1.992188-7.273438-1.53125-9.917969 1.105469l-97.257812 97.058593c-14.5625 3.363282-29.039063 7.144532-43.421875 11.34375 17.5625-37.441406 26.679687-78.289062 26.707031-119.644531-.027344-41.660156-9.28125-82.796875-27.09375-120.457031l18.46875 4.898438c129.792969 34.359374 266.210937 34.972656 396.308594 1.789062l26.898437-6.878906c-36.078125 76.015625-36.246094 164.191406-.449218 240.339844-19.390626-5.667969-38.949219-10.574219-58.667969-14.722657zm0 0" fill="url(#c)"/></svg>